#!OML:ASF F:\VICON\USERDATA\INSTALL\rory3\rory3.ASF
:FULLY-SPECIFIED
:DEGREES
253
root -0.017 18.6018 -14.1674 5.37251 0.3061 -6.85814
lowerback 14.0812 1.01045 8.97087
upperback 0.00593693 2.82657 0.232247
thorax -7.50186 1.04122 -5.38932
lowerneck -8.00176 -1.21086 -0.621567
upperneck -6.20078 -1.57425 -0.467321
head -0.590624 -0.771464 -0.068364
rclavicle 1.46107e-014 -2.24627e-014
rhumerus -19.4258 17.5509 -86.1635
rradius 112.506
rwrist -3.78426
rhand -36.2927 38.7372
rfingers 7.12502
rthumb -9.39219 8.96645
lclavicle 1.46107e-014 -2.24627e-014
lhumerus -64.8688 -0.968155 91.2526
lradius 105.772
lwrist 26.0746
lhand -38.6189 15.5142
lfingers 7.12502
lthumb -11.6362 45.1711
rfemur 33.4059 7.40196 34.9866
rtibia -1.27222e-014
rfoot 38.5615 -3.87573
rtoes 6.12474
lfemur -48.4561 -1.31385 -11.8723
ltibia 52.3795
lfoot 7.7336 -8.72331
ltoes -16.5774
254
root -0.017 18.6395 -13.9099 5.36486 0.3061 -7.22027
lowerback 13.9648 1.10122 9.11014
upperback 0.106453 2.96014 0.354174
thorax -7.30606 1.11678 -5.3526
lowerneck -7.82816 -1.09486 -0.675831
upperneck -6.67736 -1.42141 -0.508431
head -0.763586 -0.691133 -0.0668297
rclavicle 9.49197e-015 -4.25399e-014
rhumerus -19.4922 18.2961 -86.1887
rradius 112.424
rwrist -3.26653
rhand -36.4504 39.4121
rfingers 7.12502
rthumb -9.54442 9.64825
lclavicle 9.49197e-015 -4.25399e-014
lhumerus -64.5915 -0.770551 91.3105
lradius 106.093
lwrist 25.9571
lhand -38.5092 14.8199
lfingers 7.12502
lthumb -11.5303 44.4828
rfemur 29.4164 7.94469 35.9956
rtibia 10.456
rfoot 36.1026 -3.59575
rtoes 16.085
lfemur -47.0318 -1.24587 -11.4356
ltibia 47.2704
lfoot 8.80406 -8.0219
ltoes -13.3047
255
root -0.0169 18.6569 -13.6523 5.15769 0.3061 -7.86299
lowerback 14.2842 1.09123 9.58333
upperback 0.149506 3.07098 0.539476
thorax -7.41014 1.15186 -5.45346
lowerneck -8.2923 -1.0341 -0.763725
upperneck -6.36206 -1.32551 -0.489973
head -0.593426 -0.64331 -0.0491466
rclavicle 1.65985e-014 -7.7526e-015
rhumerus -19.9561 18.9005 -86.3288
rradius 112.336
rwrist -2.9442
rhand -36.5723 40.2245
rfingers 7.12502
rthumb -9.66202 10.4661
lclavicle 1.65985e-014 -7.7526e-015
lhumerus -64.4115 -0.785363 91.4265
lradius 106.493
lwrist 25.968
lhand -38.8221 14.0894
lfingers 7.12502
lthumb -11.8321 43.7351
rfemur 27.8608 8.38344 37.1081
rtibia 16.3959
rfoot 34.7598 -3.75743
rtoes 19.5793
lfemur -45.4262 -1.23081 -10.7648
ltibia 42.5685
lfoot 9.18059 -7.30719
ltoes -13.7825
256
root -0.0168 18.6671 -13.3948 4.93262 0.3061 -8.24404
lowerback 14.306 1.07149 9.78002
upperback 0.351343 3.07588 0.67015
thorax -7.19936 1.16784 -5.41918
lowerneck -8.68827 -0.981535 -0.700627
upperneck -6.22291 -1.25863 -0.62161
head -0.490187 -0.612459 -0.100315
rclavicle 1.14301e-015 -1.33186e-014
rhumerus -20.4663 19.3562 -86.525
rradius 112.154
rwrist -2.44124
rhand -36.551 41.0792
rfingers 7.12502
rthumb -9.64146 11.3198
lclavicle 1.14301e-015 -1.33186e-014
lhumerus -63.8426 -0.781346 91.5328
lradius 106.68
lwrist 25.9189
lhand -38.4324 13.4194
lfingers 7.12502
lthumb -11.4563 43.0864
rfemur 26.5646 8.78785 37.8775
rtibia 21.7331
rfoot 33.587 -4.62627
rtoes 20.3834
lfemur -43.7326 -1.34167 -10.3922
ltibia 38.387
lfoot 8.83149 -6.68925
ltoes -16.3539
257
root -0.0167 18.6628 -13.1372 4.82504 0.3061 -8.52921
lowerback 14.069 1.12721 9.73516
upperback 0.628743 3.10641 0.82374
thorax -6.77034 1.21975 -5.21497
lowerneck -8.6041 -0.866957 -0.673871
upperneck -6.74576 -1.11516 -0.69436
head -0.663474 -0.538242 -0.122089
rclavicle 2.84262e-014 2.90226e-014
rhumerus -20.922 19.6841 -86.6766
rradius 111.709
rwrist -1.98634
rhand -36.513 41.7257
rfingers 7.12502
rthumb -9.60476 11.9647
lclavicle 2.84262e-014 2.90226e-014
lhumerus -62.9464 -0.837892 91.7326
lradius 106.73
lwrist 25.8936
lhand -38.3278 13.6375
lfingers 7.12502
lthumb -11.3554 43.3101
rfemur 25.167 8.40866 37.9825
rtibia 26.9053
rfoot 33.1952 -5.09245
rtoes 20.2657
lfemur -42.1454 -1.19594 -10.1912
ltibia 34.9308
lfoot 8.02101 -6.1262
ltoes -22.2204
258
root -0.0166 18.6523 -12.8797 4.63788 0.3061 -8.6827
lowerback 14.1566 1.1641 9.55084
upperback 0.788067 3.13128 0.916621
thorax -6.65715 1.24999 -5.0161
lowerneck -8.10729 -0.780765 -0.743039
upperneck -7.43978 -1.00089 -0.5575
head -0.954337 -0.475242 -0.0639018
rclavicle -3.26007e-014 -2.5842e-015
rhumerus -21.6632 20.0432 -87.0146
rradius 111.268
rwrist -2.25803
rhand -36.5581 39.9874
rfingers 7.12502
rthumb -9.64835 10.2284
lclavicle -3.26007e-014 -2.5842e-015
lhumerus -62.0542 -0.963659 91.9878
lradius 106.729
lwrist 25.6114
lhand -38.5293 13.9077
lfingers 7.12502
lthumb -11.5497 43.5695
rfemur 23.7111 8.07682 37.9428
rtibia 32.092
rfoot 32.9663 -6.33659
rtoes 18.8558
lfemur -40.4826 -1.07362 -10.1008
ltibia 32.163
lfoot 8.18141 -5.63438
ltoes -22.0243
259
root -0.0166 18.632 -12.6221 4.44945 0.3061 -8.80822
lowerback 14.1854 1.11181 9.50458
upperback 0.929957 3.04706 0.899783
thorax -6.53354 1.22126 -4.99081
lowerneck -7.52686 -0.755566 -0.477207
upperneck -8.19742 -0.997087 -0.573542
head -1.28578 -0.475706 -0.108275
rclavicle 1.71452e-014 -1.59028e-015
rhumerus -22.5496 20.2237 -87.5562
rradius 110.653
rwrist -2.93061
rhand -36.5338 36.6647
rfingers 7.12502
rthumb -9.6249 6.90455
lclavicle 1.71452e-014 -1.59028e-015
lhumerus -61.0606 -1.32836 92.1452
lradius 106.725
lwrist 25.3569
lhand -36.8421 11.8605
lfingers 7.12502
lthumb -9.92229 41.6067
rfemur 21.9824 7.52597 37.8347
rtibia 37.4035
rfoot 33.2051 -8.0478
rtoes 17.3638
lfemur -38.9786 -0.961769 -10.1413
ltibia 30.0102
lfoot 7.34708 -5.13444
ltoes -22.8555
260
root -0.0165 18.6114 -12.3646 4.1095 0.3061 -8.47408
lowerback 14.3962 1.08352 9.02738
upperback 1.14738 2.93209 0.75436
thorax -6.44789 1.18811 -4.86256
lowerneck -7.24926 -0.708103 -0.42427
upperneck -8.74584 -0.93137 -0.369181
head -1.50398 -0.44375 -0.0514577
rclavicle -3.42904e-015 5.1684e-015
rhumerus -23.4993 20.125 -88.0462
rradius 109.811
rwrist -3.70475
rhand -36.6475 36.0871
rfingers 7.12502
rthumb -9.73452 6.33208
lclavicle -3.42904e-015 5.1684e-015
lhumerus -60.0411 -2.04759 92.337
lradius 106.88
lwrist 25.293
lhand -35.7388 11.107
lfingers 7.12502
lthumb -8.85773 40.9011
rfemur 20.2386 6.90441 37.247
rtibia 42.7163
rfoot 33.8092 -10.0786
rtoes 15.4387
lfemur -37.2977 -0.907294 -10.7602
ltibia 28.4043
lfoot 7.40918 -3.65173
ltoes -22.4168
261
root -0.0164 18.5669 -12.107 3.93494 0.3061 -8.13946
lowerback 14.8347 0.740018 8.70697
upperback 1.23615 2.45753 0.608553
thorax -6.67176 0.955749 -4.76719
lowerneck -7.14502 -0.598586 -0.464844
upperneck -9.12817 -0.763656 -0.0030083
head -1.6417 -0.361763 0.0707785
rclavicle 1.28216e-014 8.34896e-015
rhumerus -24.4336 19.8244 -88.5208
rradius 108.97
rwrist -4.34332
rhand -36.7708 36.7469
rfingers 7.12502
rthumb -9.85352 6.9975
lclavicle 1.28216e-014 8.34896e-015
lhumerus -58.78 -2.80276 92.5339
lradius 106.991
lwrist 25.3292
lhand -35.4297 11.023
lfingers 7.12502
lthumb -8.55942 40.8296
rfemur 17.9333 5.61908 36.6878
rtibia 48.1176
rfoot 34.0552 -12.6773
rtoes 15.8246
lfemur -36.0611 -1.15497 -11.5514
ltibia 27.1518
lfoot 7.75284 -2.5545
ltoes -23.2765
262
root -0.0163 18.5147 -11.8494 3.77254 0.3061 -7.63583
lowerback 14.5354 0.857016 8.13773
upperback 1.43558 2.46254 0.392512
thorax -6.30229 0.994712 -4.66296
lowerneck -7.03474 -0.532723 -0.450574
upperneck -9.09646 -0.663972 0.226792
head -1.64931 -0.315576 0.140517
rclavicle 5.13858e-014 -2.22639e-014
rhumerus -25.5589 19.4982 -88.9487
rradius 108.168
rwrist -4.92568
rhand -36.9536 36.8054
rfingers 7.12502
rthumb -10.0298 7.06439
lclavicle 5.13858e-014 -2.22639e-014
lhumerus -57.725 -3.49674 92.7691
lradius 107.289
lwrist 25.4107
lhand -34.6022 10.5767
lfingers 7.12502
lthumb -7.76087 40.4143
rfemur 15.9941 5.13816 35.5053
rtibia 53.4605
rfoot 34.4574 -14.5295
rtoes 18.6948
lfemur -34.3507 -0.755833 -12.4526
ltibia 26.3282
lfoot 7.73663 -1.41406
ltoes -24.4509
263
root -0.0162 18.4353 -11.5919 3.38371 0.3061 -6.66258
lowerback 14.941 0.735712 6.99293
upperback 1.44302 2.13241 0.111977
thorax -6.59444 0.848487 -4.26975
lowerneck -6.53163 -0.524186 -0.452081
upperneck -9.14238 -0.63787 0.529247
head -1.74725 -0.307412 0.236714
rclavicle 7.65321e-015 -2.10712e-014
rhumerus -26.9082 19.1234 -89.4379
rradius 107.042
rwrist -5.26262
rhand -37.1781 36.9543
rfingers 7.12502
rthumb -10.2465 7.2239
lclavicle 7.65321e-015 -2.10712e-014
lhumerus -56.9931 -4.3227 92.968
lradius 107.877
lwrist 25.6381
lhand -34.4428 10.7162
lfingers 7.12502
lthumb -7.60699 40.5594
rfemur 14.1718 3.80619 33.8396
rtibia 58.8004
rfoot 34.5088 -16.2238
rtoes 20.5488
lfemur -32.718 -0.641763 -13.9289
ltibia 25.9553
lfoot 8.38081 -1.58011
ltoes -24.0087
264
root -0.0162 18.3446 -11.3343 3.33011 0.3061 -5.86939
lowerback 14.9585 0.872995 5.74927
upperback 1.38512 2.09969 -0.0584092
thorax -6.70771 0.859319 -3.74398
lowerneck -6.04753 -0.505206 -0.497633
upperneck -9.06946 -0.601675 0.72883
head -1.80478 -0.29205 0.30808
rclavicle 1.13307e-014 9.14409e-015
rhumerus -28.1916 18.7371 -89.7407
rradius 105.726
rwrist -5.65132
rhand -37.0413 37.7014
rfingers 7.12502
rthumb -10.1145 7.96451
lclavicle 1.13307e-014 9.14409e-015
lhumerus -55.9066 -5.26564 93.2908
lradius 108.225
lwrist 25.9914
lhand -34.628 10.6612
lfingers 7.12502
lthumb -7.78576 40.4978
rfemur 12.0692 3.05512 32.2164
rtibia 64.0247
rfoot 33.9157 -17.1011
rtoes 22.2939
lfemur -31.4621 0.0924439 -15.1632
ltibia 26.1446
lfoot 9.11802 -2.71874
ltoes -22.9733
265
root -0.0161 18.2403 -11.0768 2.93725 0.3061 -5.25211
lowerback 15.1972 0.873215 4.76655
upperback 1.50698 1.94007 -0.145926
thorax -6.75481 0.808666 -3.255
lowerneck -5.86574 -0.425683 -0.512674
upperneck -8.77023 -0.497189 0.740204
head -1.73953 -0.240304 0.313838
rclavicle 3.18055e-015 3.26007e-014
rhumerus -29.099 18.7057 -89.9657
rradius 104.421
rwrist -6.03928
rhand -37.3962 37.5875
rfingers 7.12502
rthumb -10.4568 7.86755
lclavicle 3.18055e-015 3.26007e-014
lhumerus -54.4571 -6.19557 93.6779
lradius 108.536
lwrist 26.4967
lhand -33.8629 10.2784
lfingers 7.12502
lthumb -7.04725 40.141
rfemur 10.1979 2.084 30.6393
rtibia 69.0842
rfoot 33.0503 -17.1735
rtoes 24.115
lfemur -30.1522 0.877026 -16.2748
ltibia 26.8999
lfoot 9.59725 -5.02671
ltoes -16.3247
266
root -0.016 18.1383 -10.8192 2.94569 0.3061 -4.40463
lowerback 14.8119 0.707507 3.84754
upperback 1.54487 1.53803 -0.317831
thorax -6.55549 0.642319 -2.82543
lowerneck -5.80034 -0.272635 -0.503567
upperneck -8.32555 -0.29926 0.686969
head -1.60914 -0.141421 0.294949
rclavicle 5.86415e-015 1.51076e-014
rhumerus -30.1581 18.7853 -90.2844
rradius 103.181
rwrist -6.06949
rhand -37.9767 35.8675
rfingers 7.12502
rthumb -11.0168 6.17658
lclavicle 5.86415e-015 1.51076e-014
lhumerus -53.0657 -7.0467 94.0539
lradius 109.107
lwrist 27.0477
lhand -32.4443 9.8188
lfingers 7.12502
lthumb -5.67775 39.7227
rfemur 7.89377 0.803221 28.5704
rtibia 73.9279
rfoot 32.2105 -16.5667
rtoes 23.6293
lfemur -29.535 1.30899 -17.7337
ltibia 28.4032
lfoot 7.63918 -9.65336
ltoes -11.621
